<svg xmlns="http://www.w3.org/2000/svg" class="h-full" id="logo" fill="none" viewBox="0 0 370.35 96.9"><path fill="url(#a)" d="m33.324 58.83 24.7 13.98-39.63 22.436a12.449 12.449 0 0 1-6.126 1.611 12.45 12.45 0 0 1-6.127-1.605 12.148 12.148 0 0 1-4.49-4.393A11.846 11.846 0 0 1 0 84.854V12.013c.002-2.11.57-4.182 1.648-6.008a12.147 12.147 0 0 1 4.489-4.397A12.45 12.45 0 0 1 12.266 0c2.151 0 4.265.556 6.128 1.611l34.601 19.601 5.028 2.836-24.699 14.03a11.851 11.851 0 0 0-5.58 6.823 11.806 11.806 0 0 0 .311 7.92 12.094 12.094 0 0 0 5.269 6.01Z"></path><path fill="#C68614" d="M58.023 39.796 33.324 53.825a11.851 11.851 0 0 0-5.58 6.824 11.763 11.763 0 0 1 4.415-7.305L52.995 37l5.028 2.796Z"></path><path fill="url(#b)" d="M116.005 12.052v72.842a11.846 11.846 0 0 1-1.651 6.004 12.146 12.146 0 0 1-4.49 4.393 12.446 12.446 0 0 1-6.127 1.606 12.449 12.449 0 0 1-6.126-1.612L57.992 72.85 33.293 58.87a12.147 12.147 0 0 1-4.466-4.4 11.845 11.845 0 0 1-1.635-5.997c0-2.105.564-4.173 1.634-5.998a12.146 12.146 0 0 1 4.467-4.398l24.7-14.03L97.61 1.612A12.45 12.45 0 0 1 103.75 0c2.155.001 4.271.559 6.136 1.618a12.144 12.144 0 0 1 4.487 4.412 11.848 11.848 0 0 1 1.632 6.022Z"></path><path fill="#FFF" d="M157.25 71.96c-4.949 0-9.002-1.28-12.16-3.84-3.157-2.56-5.077-5.973-5.76-10.24l9.792-2.432c.47 2.56 1.43 4.48 2.88 5.76 1.494 1.237 3.35 1.856 5.568 1.856 1.11 0 2.091-.17 2.944-.512.896-.341 1.6-.853 2.112-1.536s.768-1.493.768-2.432c0-.853-.256-1.6-.768-2.24-.512-.683-1.344-1.323-2.496-1.92-1.152-.64-2.688-1.323-4.608-2.048-3.029-1.195-5.504-2.453-7.424-3.776-1.92-1.365-3.328-2.923-4.224-4.672-.896-1.75-1.344-3.755-1.344-6.016 0-2.475.598-4.65 1.792-6.528 1.238-1.92 2.944-3.413 5.12-4.48 2.219-1.11 4.779-1.664 7.68-1.664 3.115 0 5.867.725 8.256 2.176 2.432 1.408 4.374 3.563 5.824 6.464l-8 4.864c-.81-1.493-1.77-2.624-2.88-3.392-1.066-.81-2.24-1.216-3.52-1.216-.768 0-1.472.15-2.112.448a3.763 3.763 0 0 0-1.536 1.28c-.384.512-.576 1.13-.576 1.856 0 .725.214 1.408.64 2.048.47.64 1.302 1.301 2.496 1.984 1.195.64 2.859 1.365 4.992 2.176 2.859 1.067 5.206 2.24 7.04 3.52 1.878 1.28 3.286 2.773 4.224 4.48.939 1.664 1.408 3.67 1.408 6.016 0 2.73-.682 5.163-2.048 7.296-1.322 2.09-3.2 3.733-5.632 4.928-2.389 1.195-5.205 1.792-8.448 1.792Zm21.556 12.096 6.656-16.064-11.648-28.544h10.56l6.208 18.944 6.4-18.944h10.368l-18.112 44.608h-10.432ZM211.442 71V39.448h9.664v7.424h-1.28c.512-2.133 1.323-3.776 2.432-4.928 1.11-1.195 2.347-2.027 3.712-2.496 1.408-.47 2.774-.704 4.096-.704 3.67 0 6.528 1.024 8.576 3.072 2.048 2.005 3.072 4.736 3.072 8.192V71h-9.664V53.592c0-2.261-.405-3.904-1.216-4.928-.768-1.024-2.026-1.536-3.776-1.536-1.365 0-2.496.32-3.392.96-.853.64-1.493 1.643-1.92 3.008-.426 1.323-.64 3.05-.64 5.184V71h-9.664Zm51.275.704c-2.688 0-5.034-.47-7.04-1.408-1.962-.939-3.605-2.197-4.928-3.776a15.856 15.856 0 0 1-2.944-5.312 19.288 19.288 0 0 1-.96-6.016c0-2.048.32-4.053.96-6.016a15.17 15.17 0 0 1 2.944-5.248c1.323-1.579 2.966-2.837 4.928-3.776 2.006-.939 4.352-1.408 7.04-1.408 3.328 0 6.208.79 8.64 2.368 2.432 1.579 4.246 3.99 5.44 7.232l-8.384 3.328c-.426-1.323-1.088-2.41-1.984-3.264-.853-.853-2.09-1.28-3.712-1.28-1.493 0-2.709.405-3.648 1.216-.896.768-1.557 1.77-1.984 3.008a12.88 12.88 0 0 0-.576 3.84c0 1.323.192 2.624.576 3.904.427 1.237 1.088 2.261 1.984 3.072.939.768 2.155 1.152 3.648 1.152 1.622 0 2.859-.427 3.712-1.28.896-.853 1.558-1.941 1.984-3.264l8.384 3.328c-1.194 3.243-3.008 5.653-5.44 7.232-2.432 1.579-5.312 2.368-8.64 2.368Zm27.225 0c-2.304 0-4.245-.683-5.824-2.048-1.578-1.408-2.368-3.627-2.368-6.656V26.392h9.6V61.08c0 .64.171 1.088.512 1.344.384.256.854.384 1.408.384.342 0 .662-.021.96-.064l1.024-.256v8.192c-.981.384-1.941.64-2.88.768-.896.17-1.706.256-2.432.256ZM300.191 71V39.448h9.664V71h-9.664Zm-.064-35.904v-8.704h9.856v8.704h-9.856ZM319.123 71V46.936h-5.184v-7.488h5.248v-2.816c0-2.944.49-5.205 1.472-6.784.981-1.579 2.261-2.667 3.84-3.264 1.621-.597 3.349-.896 5.184-.896 1.408 0 2.624.128 3.648.384s2.005.597 2.944 1.024l-3.072 7.36a6.131 6.131 0 0 0-1.216-.512 2.963 2.963 0 0 0-1.216-.256c-.811 0-1.344.299-1.6.896-.256.555-.384 1.259-.384 2.112v2.752h6.272v7.488h-6.272V71h-9.664Zm22.683 13.056 6.656-16.064-11.648-28.544h10.56l6.208 18.944 6.4-18.944h10.368l-18.112 44.608h-10.432Z"></path><defs><linearGradient id="a" x1="-49.409" x2="77.235" y1="-13.741" y2="105.182" gradientUnits="userSpaceOnUse"><stop offset=".13" stop-color="#FFB100"></stop><stop offset=".89" stop-color="#FF7600"></stop> 		</linearGradient><linearGradient id="b" x1="140.439" x2="15.932" y1="32.154" y2="89.775" gradientUnits="userSpaceOnUse"><stop stop-color="#7955FF"></stop><stop offset="1" stop-color="#3C0094"></stop> 		</linearGradient> 	</defs> </svg>