<svg xmlns="http://www.w3.org/2000/svg" fill="none" viewBox="-0.03 -0.03 446.26 100.82"><g clip-path="url(#a)"><path fill="url(#b)" d="m32.58 58.72 24.17 13.95-38.78 22.39a12 12 0 0 1-18-10.37V12a12 12 0 0 1 18-10.38l33.86 19.56 4.92 2.83-24.17 14a11.78 11.78 0 0 0-5.46 6.81 12 12 0 0 0 5.46 13.9Z"></path><path fill="#C68614" d="m56.75 24.01-24.17 14a11.78 11.78 0 0 0-5.46 6.81 11.78 11.78 0 0 1 4.32-7.29l20.39-16.31 4.92 2.79Z"></path><path fill="url(#c)" d="M113.49 12v72.69a11.999 11.999 0 0 1-18 10.37L56.72 72.67 32.55 58.72a12.001 12.001 0 0 1 0-20.75l24.17-14L95.49 1.58a12 12 0 0 1 18 10.42Z"></path><path fill="#fff" d="M147.7 40.39a16.18 16.18 0 0 1-8.74-2.33 15.872 15.872 0 0 1-5.87-6.54 24.064 24.064 0 0 1 0-19.66 15.872 15.872 0 0 1 5.87-6.54 16.18 16.18 0 0 1 8.74-2.33 16.531 16.531 0 0 1 8.87 2.33 15.838 15.838 0 0 1 5.89 6.54 21.796 21.796 0 0 1 2.1 9.86 21.406 21.406 0 0 1-2.13 9.8 16.005 16.005 0 0 1-5.91 6.54 16.46 16.46 0 0 1-8.82 2.33Zm0-4.35a11.212 11.212 0 0 0 10.74-6.75c2-4.87 2-10.33 0-15.2a12.17 12.17 0 0 0-17.17-5 11.16 11.16 0 0 0-4.23 5 20.514 20.514 0 0 0 0 15.3 11.16 11.16 0 0 0 4.23 5 11.74 11.74 0 0 0 6.43 1.66v-.01ZM169.12 50.39V14.23h4.36v7.63l-1.4-1a10.82 10.82 0 0 1 2-3.81 8.612 8.612 0 0 1 3.24-2.41 11.682 11.682 0 0 1 10.46.91 11.651 11.651 0 0 1 4.07 4.72 15.223 15.223 0 0 1 1.45 6.77 14.996 14.996 0 0 1-1.55 7 11.43 11.43 0 0 1-4.21 4.59 11.08 11.08 0 0 1-5.86 1.61 10.29 10.29 0 0 1-4.36-.89 8.937 8.937 0 0 1-3.21-2.43 9.602 9.602 0 0 1-1.87-3.53l1.24-1.2v18.2h-4.36Zm11.83-14.16a7.37 7.37 0 0 0 4.13-1.17 7.864 7.864 0 0 0 2.8-3.24 11.794 11.794 0 0 0 0-9.55 7.92 7.92 0 0 0-2.8-3.24 7.37 7.37 0 0 0-4.13-1.17 7.22 7.22 0 0 0-4.09 1.17 7.736 7.736 0 0 0-2.75 3.24 11.994 11.994 0 0 0 0 9.55 7.682 7.682 0 0 0 2.75 3.24 7.219 7.219 0 0 0 4.09 1.14v.03ZM208.56 40.2a12.668 12.668 0 0 1-5.27-1 10.003 10.003 0 0 1-3.74-2.82 12.733 12.733 0 0 1-2.23-4.18 16.397 16.397 0 0 1-.75-5 17.273 17.273 0 0 1 .73-5.06 13.352 13.352 0 0 1 2.15-4.28 10.113 10.113 0 0 1 3.61-2.95 11.148 11.148 0 0 1 5.08-1.09 11.83 11.83 0 0 1 5.11 1 9.529 9.529 0 0 1 3.53 2.77 12.476 12.476 0 0 1 2 3.95c.45 1.46.676 2.982.67 4.51v1a9.578 9.578 0 0 1-.13 1.32h-18.39a8.512 8.512 0 0 0 2.18 5.82 7.34 7.34 0 0 0 5.5 2.07 9.571 9.571 0 0 0 3.89-.73 9.139 9.139 0 0 0 3.11-2.33l3.06 2.7a14.276 14.276 0 0 1-3 2.46 12.171 12.171 0 0 1-3.29 1.43c-1.25.3-2.534.438-3.82.41Zm6.58-14.12c.073-.271.117-.55.13-.83v-.83a7.52 7.52 0 0 0-.44-2.49 7.227 7.227 0 0 0-1.3-2.25 6.054 6.054 0 0 0-2.18-1.61 7.547 7.547 0 0 0-3.14-.6 6.999 6.999 0 0 0-3.84 1 7.103 7.103 0 0 0-2.49 2.75 9.81 9.81 0 0 0-1 3.79h15.72l-1.46 1.07ZM223.96 39.78V14.2h4.44v5.45l-1 .36a9.995 9.995 0 0 1 2-3.34 8.42 8.42 0 0 1 3-2.13 9.812 9.812 0 0 1 3.89-.75 8.763 8.763 0 0 1 6.59 2.46c1.593 1.64 2.387 4.07 2.38 7.29v16.24h-4.41V25.15c0-2.59-.47-4.51-1.42-5.73a5.152 5.152 0 0 0-4.34-1.85 6.322 6.322 0 0 0-3.6 1 6.125 6.125 0 0 0-2.26 3.09 15.636 15.636 0 0 0-.78 5.37v12.76l-4.49-.01ZM139.81 89.64l-11-36.16h8.51l7 23.6 6-21.43h8l6 21.43 7-23.6h8.51l-11.05 36.16h-7.84l-7.43-24.25h1.35l-7.21 24.28-7.84-.03ZM187.28 90.21a11.55 11.55 0 0 1-5-1.07 8.49 8.49 0 0 1-3.58-3 7.994 7.994 0 0 1-1.33-4.57 7.66 7.66 0 0 1 1-3.89 6.673 6.673 0 0 1 2.57-2.54 9.12 9.12 0 0 1 2.7-1 15.694 15.694 0 0 1 3.22-.32h7.68v5.76H188a5.378 5.378 0 0 0-1.12.11c-.305.06-.595.183-.85.36-.243.164-.44.388-.57.65-.14.261-.213.554-.21.85a2 2 0 0 0 .91 1.74 3.999 3.999 0 0 0 2.41.65 6 6 0 0 0 2.67-.6 5.002 5.002 0 0 0 2-1.63 4.09 4.09 0 0 0 .72-2.39l1.66 4.41a11.19 11.19 0 0 1-2.36 4.05 7.493 7.493 0 0 1-2.9 1.92 9.191 9.191 0 0 1-3.08.51Zm7.22-.57-.63-3V73.39a2.763 2.763 0 0 0-1.29-2.59 6.171 6.171 0 0 0-3.22-.78c-1.467.02-2.922.273-4.31.75a14.599 14.599 0 0 0-3.84 1.84l-3.32-5.5a21.287 21.287 0 0 1 5.94-2.83 23.239 23.239 0 0 1 6.2-.8c3.64 0 6.48.89 8.54 2.67a9.085 9.085 0 0 1 3.09 7.24v16.24l-7.16.01ZM202.85 70.13v-6.07h17.48v6.07h-17.48Zm12.81 20.08a10.676 10.676 0 0 1-4.15-.83 6.901 6.901 0 0 1-3.19-2.73 9.466 9.466 0 0 1-1.22-5.16V58.72l7.89-4.21v24.75a7.998 7.998 0 0 0 .57 3.43 2.298 2.298 0 0 0 2.28 1.14 6.846 6.846 0 0 0 1.14-.11c.456-.076.907-.18 1.35-.31v6c-.742.267-1.505.474-2.28.62-.79.132-1.59.192-2.39.18ZM234.24 90.21a13.138 13.138 0 0 1-5.68-1.14 11.624 11.624 0 0 1-4-3.06 12.766 12.766 0 0 1-2.39-4.31 15.624 15.624 0 0 1 0-9.75 12.456 12.456 0 0 1 2.39-4.28 11.688 11.688 0 0 1 4-3 13.14 13.14 0 0 1 5.68-1.14 12.548 12.548 0 0 1 7 1.92 11.409 11.409 0 0 1 4.41 5.86l-6.79 2.7a6.47 6.47 0 0 0-1.59-2.65 4.17 4.17 0 0 0-3-1 4.329 4.329 0 0 0-2.93 1 5.346 5.346 0 0 0-1.61 2.46 9.87 9.87 0 0 0-.5 3.11c0 1.067.169 2.127.5 3.14a5.34 5.34 0 0 0 1.61 2.49 4.33 4.33 0 0 0 2.93 1 4.127 4.127 0 0 0 3-1 6.37 6.37 0 0 0 1.59-2.64l6.79 2.7a11.409 11.409 0 0 1-4.41 5.86 12.55 12.55 0 0 1-7 1.73ZM247.99 89.64V53.48h7.83v16.6h-1a8.724 8.724 0 0 1 2-4 7.432 7.432 0 0 1 3-2c1.058-.37 2.17-.561 3.29-.57a9.483 9.483 0 0 1 7 2.46 9.01 9.01 0 0 1 2.49 6.67v17h-7.84V75.53a6.588 6.588 0 0 0-1-4 3.649 3.649 0 0 0-3.08-1.24 4.001 4.001 0 0 0-3.66 1.79c-.78 1.193-1.17 3.07-1.17 5.63v11.93h-7.86ZM275.12 89.64v-5.71l3.66-2.59c1.4-1 2.83-2.11 4.3-3.32a38.028 38.028 0 0 0 4.1-3.92 22.466 22.466 0 0 0 3.09-4.33 9.649 9.649 0 0 0 1.19-4.57 5.556 5.556 0 0 0-.93-3.22 3.596 3.596 0 0 0-3.17-1.34 4 4 0 0 0-3 1.06 6.003 6.003 0 0 0-1.47 2.59c-.286.954-.47 1.937-.55 2.93l-7.68-.62a14.595 14.595 0 0 1 3.3-9.16 12.198 12.198 0 0 1 4-3.19 12.52 12.52 0 0 1 5.58-1.19 12.07 12.07 0 0 1 6 1.48 10.681 10.681 0 0 1 4.15 4.15 12.573 12.573 0 0 1 1.5 6.25 15.789 15.789 0 0 1-.8 5 19.53 19.53 0 0 1-2.31 4.7 23.387 23.387 0 0 1-3.68 4.25 31.291 31.291 0 0 1-5 3.71 40.64 40.64 0 0 1-6.12 3.06l2.12-3.27h17.23v7.27l-25.51-.02ZM314.4 100.79c-3.91 0-7-.68-9.2-2a6.247 6.247 0 0 1-3.35-5.57v-.81c.036-.306.09-.61.16-.91l7.73-4.35 1.66 2.24-3 3.68a.342.342 0 0 0 0 .18v.19c0 .65.52 1.19 1.58 1.6 1.426.478 2.927.691 4.43.63a7.54 7.54 0 0 0 3.32-.55 1.577 1.577 0 0 0 1-1.37 1 1 0 0 0-.23-.68 2.001 2.001 0 0 0-.88-.46 12.597 12.597 0 0 0-1.84-.39c-.8-.13-1.82-.26-3.07-.39a27.662 27.662 0 0 1-4.72-1 9.999 9.999 0 0 1-3.89-2.13 4.891 4.891 0 0 1-1.55-3.81 6.202 6.202 0 0 1 1.47-4 10.996 10.996 0 0 1 3.92-3l3.27 3a3 3 0 0 0-1.79.73 1.873 1.873 0 0 0-.7 1.45 1.255 1.255 0 0 0 .65 1.14c.565.33 1.191.54 1.84.62.79.14 1.73.28 2.8.42 1.87.21 3.57.45 5.11.73 1.376.218 2.72.608 4 1.16a5.94 5.94 0 0 1 2.54 2.08 6.092 6.092 0 0 1 .88 3.45 6.774 6.774 0 0 1-3.11 6c-2.073 1.413-5.083 2.12-9.03 2.12Zm-.46-17.74a12.88 12.88 0 0 1-5.89-1.27 9.85 9.85 0 0 1-3.92-3.45 9.666 9.666 0 0 1 .11-10.2 10 10 0 0 1 4-3.42 12.65 12.65 0 0 1 10.84 0 10.231 10.231 0 0 1 4.07 3.5 9.333 9.333 0 0 1 1.56 5.4 9.096 9.096 0 0 1-1.35 5 8.912 8.912 0 0 1-3.79 3.29 12.9 12.9 0 0 1-5.64 1.15h.01Zm-.16-6.12a2.742 2.742 0 0 0 2.44-1.07 4.364 4.364 0 0 0 .73-2.51 3.54 3.54 0 0 0-.83-2.44 3.43 3.43 0 0 0-4.72 0 3.488 3.488 0 0 0-.83 2.44 4.36 4.36 0 0 0 .72 2.51 2.81 2.81 0 0 0 2.48 1.07h.01Zm9.18-7.06-5.65-3.58 6.28-4.93 4 4.83-4.63 3.68ZM339.97 90.21a14.566 14.566 0 0 1-6-1.12 10.699 10.699 0 0 1-4-3 12.001 12.001 0 0 1-2.26-4.25 16.865 16.865 0 0 1 0-9.62 13.428 13.428 0 0 1 2.18-4.36 10.697 10.697 0 0 1 3.89-3.17 14.65 14.65 0 0 1 11.13-.18 10.515 10.515 0 0 1 3.81 2.83 12.232 12.232 0 0 1 2.31 4.31c.535 1.763.798 3.598.78 5.44v1.09c0 .38-.06.85-.13 1.4h-16.81a3.925 3.925 0 0 0 1.95 3 7.471 7.471 0 0 0 3.76.94 12.277 12.277 0 0 0 3.84-.65c1.235-.394 2.392-1 3.42-1.79l3.32 5.5a30.95 30.95 0 0 1-3.68 2.15c-1.077.53-2.221.913-3.4 1.14a20.865 20.865 0 0 1-4.11.34Zm4.1-14.53c.07-.27.13-.55.18-.83.05-.257.077-.518.08-.78a3.999 3.999 0 0 0-.36-1.73 3.62 3.62 0 0 0-1-1.28 5.147 5.147 0 0 0-1.48-.8 6 6 0 0 0-4.54.34 4.168 4.168 0 0 0-1.58 1.5 5.231 5.231 0 0 0-.68 1.71h12l-2.62 1.87ZM352.16 70.13v-6.07h17.49v6.07h-17.49Zm12.82 20.08a10.638 10.638 0 0 1-4.15-.83 6.848 6.848 0 0 1-3.19-2.73 9.466 9.466 0 0 1-1.22-5.16V58.72l7.89-4.21v24.75a7.845 7.845 0 0 0 .57 3.43 2.298 2.298 0 0 0 2.28 1.14 6.942 6.942 0 0 0 1.14-.11c.456-.078.906-.181 1.35-.31v6c-.742.267-1.505.474-2.28.62-.79.132-1.59.192-2.39.18ZM372.4 89.64V53.48h7.83v16.6h-1a8.618 8.618 0 0 1 2-4 7.473 7.473 0 0 1 3-2 10.278 10.278 0 0 1 3.3-.57 9.47 9.47 0 0 1 7 2.46 9.01 9.01 0 0 1 2.49 6.67v17h-7.83V75.53a6.661 6.661 0 0 0-1-4 3.67 3.67 0 0 0-3.09-1.24 4 4 0 0 0-3.66 1.79c-.78 1.193-1.17 3.07-1.17 5.63v11.93h-7.87ZM412.3 90.21a14.538 14.538 0 0 1-6-1.12 10.817 10.817 0 0 1-4.05-3 12.002 12.002 0 0 1-2.26-4.25 16.865 16.865 0 0 1 0-9.62 13.628 13.628 0 0 1 2.18-4.36 10.793 10.793 0 0 1 3.89-3.17 13.16 13.16 0 0 1 5.84-1.19 13 13 0 0 1 5.29 1 10.548 10.548 0 0 1 3.82 2.83 12.043 12.043 0 0 1 2.3 4.31c.535 1.763.798 3.598.78 5.44v1.09c0 .38-.06.85-.13 1.4h-16.81a3.916 3.916 0 0 0 1.94 3 7.49 7.49 0 0 0 3.76.94 12.282 12.282 0 0 0 3.84-.65c1.238-.394 2.398-1 3.43-1.79l3.32 5.5a31.785 31.785 0 0 1-3.69 2.15 13.279 13.279 0 0 1-3.39 1.14 20.867 20.867 0 0 1-4.06.35Zm4.09-14.53c.07-.27.13-.55.19-.83.047-.257.071-.518.07-.78a3.985 3.985 0 0 0-.36-1.73 3.62 3.62 0 0 0-1-1.28 5.006 5.006 0 0 0-1.48-.8 5.365 5.365 0 0 0-1.76-.29 5.422 5.422 0 0 0-2.78.63 4.177 4.177 0 0 0-1.58 1.5 5.447 5.447 0 0 0-.68 1.71h12l-2.62 1.87ZM426.77 89.64V64.06h7.89v7h-.94a7.625 7.625 0 0 1 1.12-3.89 7.883 7.883 0 0 1 2.75-2.7 6.89 6.89 0 0 1 3.5-1 8.42 8.42 0 0 1 2.57.39c.91.307 1.774.734 2.57 1.27l-3.74 7.06a5.062 5.062 0 0 0-1.45-.65 6.442 6.442 0 0 0-1.87-.29 4.819 4.819 0 0 0-1.69.31 3.806 3.806 0 0 0-1.4 1 5 5 0 0 0-1 1.64 8.83 8.83 0 0 0-.39 1.84 32.552 32.552 0 0 0-.13 3.29v10.33l-7.79-.02Z"></path></g><defs><linearGradient id="b" x1="-48.38" x2="77.82" y1="-13.7" y2="102.51" gradientUnits="userSpaceOnUse"><stop offset=".13" stop-color="#FFB100"></stop><stop offset=".89" stop-color="#FF7600"></stop></linearGradient><linearGradient id="c" x1="137.4" x2="14.73" y1="32.06" y2="87.73" gradientUnits="userSpaceOnUse"><stop stop-color="#7955FF"></stop><stop offset="1" stop-color="#3C0094"></stop></linearGradient><clipPath id="a"><path fill="#fff" d="M0 0h446.23v100.79H0z"></path></clipPath></defs></svg>